<mxfile host="app.diagrams.net" agent="Mozilla/5.0 (Windows NT 10.0; Win64; x64; rv:132.0) Gecko/20100101 Firefox/132.0" version="24.8.6">
  <diagram name="Page-1" id="trSE9L2JHTlWPWgJBVy8">
    <mxGraphModel dx="1816" dy="520" grid="1" gridSize="10" guides="1" tooltips="1" connect="1" arrows="1" fold="1" page="1" pageScale="1" pageWidth="827" pageHeight="1169" math="0" shadow="0">
      <root>
        <mxCell id="0" />
        <mxCell id="1" parent="0" />
        <mxCell id="UCUMtj4g2BqbBKYPVg5m-1" value="" style="ellipse;html=1;shape=startState;fillColor=#000000;strokeColor=#ff0000;" vertex="1" parent="1">
          <mxGeometry x="40" y="40" width="30" height="30" as="geometry" />
        </mxCell>
        <mxCell id="UCUMtj4g2BqbBKYPVg5m-2" value="" style="edgeStyle=orthogonalEdgeStyle;html=1;verticalAlign=bottom;endArrow=open;endSize=8;strokeColor=#ff0000;rounded=0;" edge="1" source="UCUMtj4g2BqbBKYPVg5m-1" parent="1">
          <mxGeometry relative="1" as="geometry">
            <mxPoint x="55" y="130" as="targetPoint" />
          </mxGeometry>
        </mxCell>
        <mxCell id="UCUMtj4g2BqbBKYPVg5m-10" style="edgeStyle=orthogonalEdgeStyle;rounded=0;orthogonalLoop=1;jettySize=auto;html=1;exitX=0.75;exitY=1;exitDx=0;exitDy=0;entryX=0.75;entryY=0;entryDx=0;entryDy=0;" edge="1" parent="1" source="UCUMtj4g2BqbBKYPVg5m-5" target="UCUMtj4g2BqbBKYPVg5m-7">
          <mxGeometry relative="1" as="geometry" />
        </mxCell>
        <mxCell id="UCUMtj4g2BqbBKYPVg5m-11" value="Press Start" style="edgeLabel;html=1;align=center;verticalAlign=middle;resizable=0;points=[];" vertex="1" connectable="0" parent="UCUMtj4g2BqbBKYPVg5m-10">
          <mxGeometry x="0.0747" y="3" relative="1" as="geometry">
            <mxPoint as="offset" />
          </mxGeometry>
        </mxCell>
        <mxCell id="UCUMtj4g2BqbBKYPVg5m-5" value="Start-Screen" style="rounded=1;whiteSpace=wrap;html=1;" vertex="1" parent="1">
          <mxGeometry x="-5" y="130" width="120" height="60" as="geometry" />
        </mxCell>
        <mxCell id="UCUMtj4g2BqbBKYPVg5m-9" style="edgeStyle=orthogonalEdgeStyle;rounded=0;orthogonalLoop=1;jettySize=auto;html=1;exitX=0.25;exitY=0;exitDx=0;exitDy=0;entryX=0.25;entryY=1;entryDx=0;entryDy=0;" edge="1" parent="1" source="UCUMtj4g2BqbBKYPVg5m-7" target="UCUMtj4g2BqbBKYPVg5m-5">
          <mxGeometry relative="1" as="geometry" />
        </mxCell>
        <mxCell id="UCUMtj4g2BqbBKYPVg5m-12" value="Press Return" style="edgeLabel;html=1;align=center;verticalAlign=middle;resizable=0;points=[];" vertex="1" connectable="0" parent="UCUMtj4g2BqbBKYPVg5m-9">
          <mxGeometry x="-0.0747" relative="1" as="geometry">
            <mxPoint as="offset" />
          </mxGeometry>
        </mxCell>
        <mxCell id="UCUMtj4g2BqbBKYPVg5m-7" value="Selection-Screen" style="rounded=1;whiteSpace=wrap;html=1;" vertex="1" parent="1">
          <mxGeometry x="-5" y="310" width="120" height="60" as="geometry" />
        </mxCell>
      </root>
    </mxGraphModel>
  </diagram>
</mxfile>
